<svg id="Layer_1" data-name="Layer 1" xmlns="http://www.w3.org/2000/svg" viewBox="0 0 119.82 44.93"><defs><style>.cls-1{fill:#98c1d9;}.cls-2{fill:#1d3461;}</style></defs><rect class="cls-1" width="119.82" height="44.93"/><rect class="cls-2" x="5.94" y="11.11" width="7.16" height="3.28" transform="translate(22.09 3.23) rotate(90)"/><rect class="cls-2" x="35.67" y="10.9" width="7.16" height="3.71" transform="translate(51.82 -26.5) rotate(90)"/><rect class="cls-2" x="7.7" y="9.1" width="33.22" height="3.96"/><rect class="cls-2" x="35.67" y="30" width="7.16" height="3.71" transform="translate(70.92 -7.39) rotate(90)"/><rect class="cls-2" x="5.94" y="30.22" width="7.16" height="3.28" transform="translate(41.2 22.33) rotate(90)"/><rect class="cls-2" x="7.7" y="31.82" width="33.22" height="3.96"/><path class="cls-2" d="M59.77,35.48V29.67a10.89,10.89,0,0,1-1.5.35,9,9,0,0,1-1.53.13,6,6,0,0,1-2.33-.44,5.26,5.26,0,0,1-1.8-1.22,5.94,5.94,0,0,1-1.18-1.88A6.59,6.59,0,0,1,51,24.22a7,7,0,0,1,.45-2.52,6.24,6.24,0,0,1,1.24-2,5.51,5.51,0,0,1,1.86-1.33,5.87,5.87,0,0,1,2.35-.47,10.74,10.74,0,0,1,1.73.13,6.07,6.07,0,0,1,1.68.57L62,18V35.48Zm0-14.82a5.3,5.3,0,0,0-1.33-.55,6.39,6.39,0,0,0-1.3-.12,3.5,3.5,0,0,0-2.74,1.24,4.42,4.42,0,0,0-.81,1.39,4.86,4.86,0,0,0-.3,1.72,3.82,3.82,0,0,0,1,2.78A3.55,3.55,0,0,0,57,28.17,5.74,5.74,0,0,0,58.35,28a6.7,6.7,0,0,0,1.42-.53Z" transform="translate(-0.18 0)"/><path class="cls-2" d="M66.7,24.17a3.5,3.5,0,0,0,.21,1.59A3.79,3.79,0,0,0,67.72,27a4,4,0,0,0,2.83,1.13,4.51,4.51,0,0,0,1.77-.35,8.52,8.52,0,0,0,1.69-1l1,1.69a8.7,8.7,0,0,1-2.17,1.23,7,7,0,0,1-2.48.43,6.22,6.22,0,0,1-2.45-.46A5.37,5.37,0,0,1,66,28.36a6,6,0,0,1-1.22-2,7.25,7.25,0,0,1-.42-2.5,6.87,6.87,0,0,1,.4-2.4,5.86,5.86,0,0,1,1.13-1.91,5,5,0,0,1,1.75-1.24A5.74,5.74,0,0,1,70,17.89a5.29,5.29,0,0,1,1.88.35,4.58,4.58,0,0,1,1.7,1.12,5.87,5.87,0,0,1,1.23,2,7.88,7.88,0,0,1,.47,2.85Zm5-3.62a2.47,2.47,0,0,0-1.82-.69,2.83,2.83,0,0,0-1.92.69A3.44,3.44,0,0,0,67,22.42h5.76A3.59,3.59,0,0,0,71.75,20.55Z" transform="translate(-0.18 0)"/><path class="cls-2" d="M79.21,24.17a3.37,3.37,0,0,0,.22,1.59A3.79,3.79,0,0,0,80.24,27a4,4,0,0,0,1.26.83,4.14,4.14,0,0,0,1.57.3,4.46,4.46,0,0,0,1.76-.35,8.24,8.24,0,0,0,1.69-1l1,1.69a8.76,8.76,0,0,1-2.18,1.23,7,7,0,0,1-2.48.43,6.22,6.22,0,0,1-2.45-.46,5.37,5.37,0,0,1-1.89-1.3,5.81,5.81,0,0,1-1.21-2,7,7,0,0,1-.43-2.5,6.87,6.87,0,0,1,.4-2.4,5.86,5.86,0,0,1,1.13-1.91,5,5,0,0,1,1.75-1.24,5.76,5.76,0,0,1,2.28-.43,5.24,5.24,0,0,1,1.87.35A4.5,4.5,0,0,1,86,19.36a5.87,5.87,0,0,1,1.23,2,7.66,7.66,0,0,1,.48,2.85Zm5.06-3.62a2.51,2.51,0,0,0-1.83-.69,2.79,2.79,0,0,0-1.91.69,3.45,3.45,0,0,0-1.07,1.87h5.76A3.66,3.66,0,0,0,84.27,20.55Z" transform="translate(-0.18 0)"/><path class="cls-2" d="M100.37,26.42a6.18,6.18,0,0,1-1.26,1.95,5.91,5.91,0,0,1-1.89,1.3,5.76,5.76,0,0,1-2.34.48A6.86,6.86,0,0,1,93.53,30a11.71,11.71,0,0,1-1.33-.32v5.78H90V17.59l1.72.85a8.47,8.47,0,0,1,1.56-.39,10.73,10.73,0,0,1,1.7-.14,6,6,0,0,1,2.35.45,5.49,5.49,0,0,1,1.87,1.27,6,6,0,0,1,1.23,1.92,6.5,6.5,0,0,1,.45,2.44A6.3,6.3,0,0,1,100.37,26.42Zm-2.14-4a3.9,3.9,0,0,0-.82-1.29,3.59,3.59,0,0,0-1.27-.85,4.17,4.17,0,0,0-1.59-.3,6.93,6.93,0,0,0-1.06.08,5.8,5.8,0,0,0-1.24.37v7a4.89,4.89,0,0,0,1.18.47,4.71,4.71,0,0,0,1.17.13A3.86,3.86,0,0,0,97.46,27a3.94,3.94,0,0,0,1.07-2.88A4.39,4.39,0,0,0,98.23,22.45Z" transform="translate(-0.18 0)"/><path class="cls-2" d="M111.7,28a3.7,3.7,0,0,1-1.12,1.18,5.27,5.27,0,0,1-1.6.71,7.08,7.08,0,0,1-1.86.24,8.89,8.89,0,0,1-4.43-1.25l.85-1.75a20.93,20.93,0,0,0,2,.76,6.17,6.17,0,0,0,1.74.26,3.59,3.59,0,0,0,.93-.12,3.3,3.3,0,0,0,.81-.35,1.86,1.86,0,0,0,.58-.57,1.4,1.4,0,0,0,.21-.76.87.87,0,0,0-.53-.8,5.68,5.68,0,0,0-1.31-.46l-1.7-.39a7.56,7.56,0,0,1-1.7-.58,3.79,3.79,0,0,1-1.32-1,2.49,2.49,0,0,1-.52-1.67,2.59,2.59,0,0,1,.39-1.37,4,4,0,0,1,1.05-1.12,5.17,5.17,0,0,1,1.52-.77,6.07,6.07,0,0,1,1.82-.27,9,9,0,0,1,2.06.25,6,6,0,0,1,2,.82l-1,1.75A4.39,4.39,0,0,0,109,20a7.38,7.38,0,0,0-1.56-.17,3.35,3.35,0,0,0-.89.12,2.55,2.55,0,0,0-.77.32,2,2,0,0,0-.52.48.94.94,0,0,0,.32,1.42,5.16,5.16,0,0,0,1.32.48l1.7.39a8.07,8.07,0,0,1,1.7.56,3.67,3.67,0,0,1,1.32,1,2.63,2.63,0,0,1,.52,1.72A3.08,3.08,0,0,1,111.7,28Z" transform="translate(-0.18 0)"/></svg>